<?xml version="1.0" encoding="UTF-8"?>
<svg xmlns="http://www.w3.org/2000/svg" xmlns:xlink="http://www.w3.org/1999/xlink" width="2500" height="2500" viewBox="0 0 2500 2500">
<defs>
<clipPath id="clip-0">
<path clip-rule="nonzero" d="M 794 617 L 810 617 L 810 685 L 794 685 Z M 794 617 "/>
</clipPath>
<clipPath id="clip-1">
<path clip-rule="evenodd" d="M 761.34375 585.328125 L 749.261719 638.289062 C 749.261719 638.289062 765.9375 665.011719 771.488281 667.871094 C 776.425781 670.410156 780.246094 656.339844 780.246094 656.339844 C 780.246094 656.339844 785.472656 684.160156 789.46875 688.621094 C 792.976562 692.53125 800.921875 680.160156 805.609375 680.320312 C 810.296875 680.46875 816.496094 691.058594 818.980469 686.769531 C 822.285156 681.089844 824.054688 648.960938 824.054688 648.960938 C 824.054688 648.960938 832.660156 666.421875 836.964844 662.328125 C 841.347656 658.191406 852.644531 623.140625 852.644531 623.140625 L 829.589844 585.328125 Z M 761.34375 585.328125 "/>
</clipPath>
</defs>
<path fill-rule="evenodd" fill="rgb(71.484375%, 83.59375%, 93.359375%)" fill-opacity="1" d="M 505.6875 2034.171875 C 370.023438 1956.3125 113.175781 1752.59375 118.175781 1580.316406 C 119.199219 1545.105469 124.734375 1513.800781 140.128906 1482.378906 C 199.527344 1361.128906 349.488281 1380.601562 407.605469 1261.351562 C 517.578125 1035.730469 360.695312 874.441406 571.710938 621 C 580.910156 609.949219 587.214844 603.019531 597.769531 593.019531 C 738.324219 459.960938 883.855469 541.328125 1048.078125 499.949219 C 1257.941406 447.070312 1331.96875 255.609375 1568.601562 250.058594 C 1827 244.011719 1873.960938 659.480469 1977.71875 820.648438 C 2032.089844 905.101562 2114.078125 956.589844 2183.070312 1026.738281 C 2300.589844 1146.238281 2391.351562 1347.988281 2381.109375 1516.203125 C 2367.390625 1741.539062 2171.789062 1928.164062 2029.441406 2085.316406 L 505.6875 2034.171875 "/>
<path fill-rule="evenodd" fill="rgb(82.421875%, 91.40625%, 98.4375%)" fill-opacity="1" d="M 1275.328125 1863.402344 C 1804.179688 1863.402344 2233.539062 1950.015625 2233.539062 2056.703125 C 2233.539062 2163.386719 1804.179688 2250 1275.328125 2250 C 746.46875 2250 317.105469 2163.386719 317.105469 2056.703125 C 317.105469 1950.015625 746.46875 1863.402344 1275.328125 1863.402344 "/>
<path fill-rule="evenodd" fill="rgb(81.25%, 58.006287%, 34.49707%)" fill-opacity="1" d="M 1947.078125 1611.535156 L 1869.121094 1611.535156 L 1880.570312 2064.71875 L 1916.050781 2064.71875 L 1947.078125 1611.535156 "/>
<path fill-rule="evenodd" fill="rgb(81.25%, 58.006287%, 34.49707%)" fill-opacity="1" d="M 1800.898438 1553.503906 L 1722.929688 1553.503906 L 1734.378906 2006.683594 L 1769.859375 2006.683594 L 1800.898438 1553.503906 "/>
<path fill-rule="evenodd" fill="rgb(81.25%, 58.006287%, 34.49707%)" fill-opacity="1" d="M 1530.230469 1611.535156 L 1608.191406 1611.535156 L 1596.738281 2064.71875 L 1561.269531 2064.71875 L 1530.230469 1611.535156 "/>
<path fill-rule="evenodd" fill="rgb(19.189453%, 12.5%, 7.788086%)" fill-opacity="1" d="M 1525.800781 1517.710938 C 1526.179688 1477.78125 1621.210938 1445.410156 1738.210938 1445.410156 C 1855.449219 1445.410156 1950.628906 1477.910156 1950.628906 1517.945312 L 1950.628906 1621.84375 C 1950.628906 1661.878906 1855.449219 1694.375 1738.210938 1694.375 C 1620.980469 1694.375 1525.800781 1661.878906 1525.800781 1621.84375 L 1525.800781 1517.710938 "/>
<path fill-rule="evenodd" fill="rgb(0%, 0%, 0%)" fill-opacity="1" d="M 1363.570312 1963.171875 C 1363.570312 1963.171875 1392.460938 2018.089844 1377.410156 2045.25 C 1366.441406 2065.03125 1297.671875 2071.308594 1257.050781 2073.839844 C 1215.171875 2076.453125 1157.988281 2072.609375 1137.621094 2060.929688 C 1128.609375 2055.757812 1135.910156 2036.753906 1144.539062 2030.953125 C 1168.210938 2015.046875 1263.511719 1965.015625 1263.511719 1965.015625 L 1363.570312 1963.171875 "/>
<path fill-rule="evenodd" fill="rgb(0%, 0%, 0%)" fill-opacity="1" d="M 1514.359375 1977.464844 C 1514.359375 1977.464844 1543.238281 2032.382812 1528.191406 2059.546875 C 1517.230469 2079.324219 1448.460938 2085.601562 1407.839844 2088.136719 C 1365.949219 2090.746094 1308.769531 2086.90625 1288.410156 2075.222656 C 1279.390625 2070.054688 1286.699219 2051.046875 1295.328125 2045.25 C 1318.988281 2029.34375 1414.289062 1979.308594 1414.289062 1979.308594 L 1514.359375 1977.464844 "/>
<path fill-rule="evenodd" fill="rgb(50.584412%, 34.104919%, 20.800781%)" fill-opacity="1" d="M 1886.488281 1372.46875 L 1865.738281 1532.019531 C 1855.21875 1563.179688 1606.980469 1644.230469 1580.761719 1678.65625 C 1549.28125 1719.992188 1521.28125 1980.691406 1521.28125 1980.691406 C 1476.960938 1992.019531 1438.339844 1991.976562 1405.351562 1980.691406 L 1393.078125 1684.648438 L 1368.640625 1964.554688 C 1329.449219 1975.910156 1292.078125 1976.84375 1257.011719 1964.554688 C 1257.011719 1964.554688 1218.089844 1658.710938 1266.738281 1560.148438 C 1305.160156 1482.289062 1558.171875 1373.851562 1558.171875 1373.851562 L 1886.488281 1372.46875 "/>
<path fill-rule="evenodd" fill="rgb(92.1875%, 71.875%, 57.617188%)" fill-opacity="1" d="M 1501.449219 832.03125 C 1501.449219 832.03125 1486.839844 826.429688 1489 821.421875 C 1498.449219 799.519531 1610.730469 755.941406 1610.730469 755.941406 L 1648.550781 654.03125 C 1637.988281 643.78125 1339.140625 720.738281 1333.140625 793.761719 C 1328.730469 847.28125 1417.980469 930.710938 1417.980469 930.710938 L 1501.449219 832.03125 "/>
<path fill-rule="evenodd" fill="rgb(50.584412%, 52.929688%, 52.929688%)" fill-opacity="1" d="M 1851.898438 759.171875 C 1898.179688 694.71875 1898.878906 637.660156 1842.21875 615.761719 C 1817.269531 581.210938 1785.601562 560.601562 1745.179688 558.121094 C 1708.199219 555.851562 1666.210938 577.53125 1610.730469 600.078125 C 1613.441406 623.949219 1621.46875 641.199219 1633.789062 653.109375 C 1624.28125 667.191406 1624.769531 683.460938 1629.179688 700.609375 L 1814.089844 779 L 1851.898438 759.171875 "/>
<path fill-rule="evenodd" fill="rgb(0%, 0%, 0%)" fill-opacity="1" d="M 751.953125 1967.753906 C 751.953125 1967.753906 853.613281 2018.652344 872.933594 2032.339844 C 877.894531 2035.851562 873.71875 2048.222656 867.863281 2049.863281 C 850.570312 2054.703125 800 2062.15625 769.179688 2061.390625 C 739.945312 2060.660156 697.246094 2060.238281 682.949219 2045.25 C 668.65625 2030.261719 683.410156 1971.46875 683.410156 1971.46875 L 751.953125 1967.753906 "/>
<path fill-rule="evenodd" fill="rgb(0%, 0%, 0%)" fill-opacity="1" d="M 1009.261719 1967.753906 C 1009.261719 1967.753906 1110.921875 2018.652344 1130.238281 2032.339844 C 1135.199219 2035.851562 1131.03125 2048.222656 1125.171875 2049.863281 C 1107.878906 2054.703125 1057.308594 2062.15625 1026.488281 2061.390625 C 997.253906 2060.660156 954.554688 2060.238281 940.257812 2045.25 C 925.964844 2030.261719 940.71875 1971.46875 940.71875 1971.46875 L 1009.261719 1967.753906 "/>
<path fill-rule="evenodd" fill="rgb(14.501953%, 16.088867%, 19.993591%)" fill-opacity="1" d="M 647.90625 1298.230469 C 668.691406 1533.855469 667.898438 1753.960938 677.417969 1971.011719 C 705.660156 1980.1875 738.40625 1980.285156 768.300781 1971.011719 C 794.078125 1760.75 816.292969 1550.609375 824.515625 1330.039062 C 824.515625 1330.039062 884.613281 1555.6875 903.367188 1660.671875 C 920.996094 1759.363281 937.03125 1972.394531 937.03125 1972.394531 C 966.324219 1981.515625 995.28125 1982.839844 1023.738281 1972.394531 C 1023.738281 1972.394531 1041.628906 1758.054688 1037.558594 1656.058594 C 1032.871094 1538.78125 991.902344 1258.109375 991.902344 1258.109375 L 931.957031 1064.441406 L 712 1062.589844 L 647.90625 1298.230469 "/>
<path fill-rule="evenodd" fill="rgb(39.208984%, 25.097656%, 12.205505%)" fill-opacity="1" d="M 686.640625 420.679688 C 546.175781 434.949219 551.210938 564.570312 613.699219 644.320312 C 618.984375 620.339844 636.980469 575.429688 652.179688 562.890625 C 689.640625 531.988281 706.417969 496.519531 704.6875 462.351562 L 686.640625 420.679688 "/>
<path fill-rule="evenodd" fill="rgb(14.501953%, 16.088867%, 19.993591%)" fill-opacity="1" d="M 701.855469 405.03125 C 672.828125 402.988281 675.929688 468.628906 711.078125 464.511719 L 701.855469 405.03125 "/>
<path fill-rule="evenodd" fill="rgb(39.208984%, 25.097656%, 12.205505%)" fill-opacity="1" d="M 897.835938 437.769531 C 934.800781 367.609375 866.847656 276.878906 806.53125 304.039062 C 758.988281 291.570312 714.703125 310.941406 701.496094 335.121094 C 682.550781 369.808594 676.480469 430.28125 718.457031 476.5 L 897.835938 437.769531 "/>
<path fill-rule="evenodd" fill="rgb(64.256287%, 83.984375%, 89.0625%)" fill-opacity="1" d="M 761.34375 585.328125 L 737.363281 690.460938 L 748.890625 1114.699219 C 806.675781 1121.699219 866.480469 1125.859375 925.503906 1106.859375 L 866.015625 668.789062 L 829.589844 585.328125 L 761.34375 585.328125 "/>
<path fill-rule="evenodd" fill="rgb(41.992188%, 60.351562%, 67.771912%)" fill-opacity="1" d="M 761.34375 585.328125 L 749.261719 638.289062 C 749.261719 638.289062 765.9375 665.011719 771.488281 667.871094 C 776.425781 670.410156 780.246094 656.339844 780.246094 656.339844 C 780.246094 656.339844 785.472656 684.160156 789.46875 688.621094 C 792.976562 692.53125 800.921875 680.160156 805.609375 680.320312 C 810.296875 680.46875 816.496094 691.058594 818.980469 686.769531 C 822.285156 681.089844 824.054688 648.960938 824.054688 648.960938 C 824.054688 648.960938 832.660156 666.421875 836.964844 662.328125 C 841.347656 658.191406 852.644531 623.140625 852.644531 623.140625 L 829.589844 585.328125 L 761.34375 585.328125 "/>
<g clip-path="url(#clip-0)">
<g clip-path="url(#clip-1)">
<path fill-rule="evenodd" fill="rgb(28.196716%, 44.309998%, 50.584412%)" fill-opacity="1" d="M 794.417969 621.769531 L 801.796875 680.800781 C 802.058594 682.898438 803.980469 684.390625 806.085938 684.128906 C 808.191406 683.871094 809.683594 681.949219 809.421875 679.839844 L 802.046875 620.820312 C 801.78125 618.710938 799.859375 617.21875 797.753906 617.480469 C 795.648438 617.738281 794.15625 619.671875 794.417969 621.769531 "/>
</g>
</g>
<path fill-rule="evenodd" fill="rgb(92.1875%, 71.875%, 57.617188%)" fill-opacity="1" d="M 829.589844 519.851562 L 761.34375 519.851562 L 761.34375 585.328125 C 773.667969 606.621094 788.230469 626.390625 799.476562 626.78125 C 811.019531 627.179688 819.21875 607.640625 829.589844 585.328125 L 829.589844 519.851562 "/>
<path fill-rule="evenodd" fill="rgb(92.1875%, 71.875%, 57.617188%)" fill-opacity="1" d="M 747.210938 451.03125 C 785.148438 439.859375 847.65625 379.230469 847.65625 379.230469 C 847.65625 379.230469 896.417969 399.339844 902.9375 453.03125 C 909.457031 506.71875 889.300781 576.769531 836.238281 579.789062 C 794.578125 582.160156 756.03125 550.039062 746.378906 500.910156 C 740.8125 501.621094 734.757812 500.839844 728.945312 498.328125 C 713.808594 491.820312 706.007812 476.089844 711.542969 463.230469 C 716.859375 450.878906 732.558594 445.640625 747.210938 451.03125 "/>
<path fill-rule="evenodd" fill="rgb(93.75%, 96.09375%, 96.09375%)" fill-opacity="1" d="M 761.34375 585.328125 C 763.960938 827.71875 767.117188 1070.378906 782.554688 1302.839844 L 597.640625 1327.738281 L 604.097656 877.21875 L 761.34375 585.328125 "/>
<path fill-rule="evenodd" fill="rgb(93.75%, 96.09375%, 96.09375%)" fill-opacity="1" d="M 829.589844 585.328125 C 829.589844 585.328125 961.953125 599.558594 989.136719 643.890625 C 1056.449219 753.648438 1113.03125 959.929688 1058.769531 998.5 C 1000.359375 1040 850.800781 923.328125 850.800781 923.328125 L 880.773438 820.960938 L 829.589844 585.328125 "/>
<path fill-rule="evenodd" fill="rgb(14.501953%, 16.088867%, 19.993591%)" fill-opacity="1" d="M 802.132812 727.121094 C 802.132812 727.121094 784.496094 888.441406 848.515625 1008.808594 C 850.132812 1011.851562 853.917969 1013.011719 856.960938 1011.390625 C 860.003906 1009.769531 861.160156 1005.980469 859.539062 1002.941406 C 797.171875 885.671875 814.550781 728.480469 814.550781 728.480469 C 814.925781 725.058594 812.449219 721.96875 809.023438 721.589844 C 805.597656 721.210938 802.511719 723.691406 802.132812 727.121094 "/>
<path fill-rule="evenodd" fill="rgb(92.1875%, 71.875%, 57.617188%)" fill-opacity="1" d="M 826.820312 850.941406 L 713.84375 895.660156 C 712.378906 849.949219 785.574219 804 826.820312 850.941406 "/>
<path fill-rule="evenodd" fill="rgb(93.75%, 96.09375%, 96.09375%)" fill-opacity="1" d="M 829.589844 585.328125 C 884.59375 766.769531 912.121094 1055.390625 926.421875 1301.921875 L 1053.691406 1302.839844 C 1046.78125 1131.089844 1026.371094 940.46875 985.910156 755.019531 L 829.589844 585.328125 "/>
<path fill-rule="evenodd" fill="rgb(92.1875%, 71.875%, 57.617188%)" fill-opacity="1" d="M 907.976562 890.128906 C 906.441406 890.890625 998.917969 913.039062 1025.570312 913.191406 C 1038.441406 913.261719 1066.5 905.859375 1061.53125 894.28125 C 1058.390625 886.941406 1041.628906 893.398438 1032.398438 892.78125 C 1025.039062 892.289062 1010.808594 888.75 1010.808594 888.75 C 1010.808594 888.75 1021.121094 890.921875 1034.871094 887.480469 C 1051.898438 883.21875 1076.140625 872.371094 1072.601562 862 C 1068.828125 850.960938 1048.75 863.570312 1033.191406 865.761719 C 1021.429688 867.410156 1008.511719 866.609375 1008.511719 866.609375 C 1008.511719 866.609375 1030.308594 862.75 1049.148438 852.101562 C 1065.960938 842.601562 1079.019531 835.800781 1072.140625 824.648438 C 1063.039062 809.890625 1051.71875 826.738281 1029.210938 835.75 C 1011.96875 842.660156 1001.589844 839.871094 1001.589844 839.871094 C 1001.589844 839.871094 1077.570312 816.378906 1055.078125 795.601562 C 1042.378906 783.871094 1031.46875 807.371094 1002.21875 815.03125 C 979.203125 821.070312 965.394531 821.660156 959.625 821.421875 C 946.175781 820.878906 990.175781 780.878906 980.375 769.78125 C 969.371094 757.308594 884.460938 828.339844 884.460938 828.339844 L 907.976562 890.128906 "/>
<path fill-rule="evenodd" fill="rgb(93.75%, 96.09375%, 96.09375%)" fill-opacity="1" d="M 761.34375 585.328125 C 761.34375 585.328125 635.230469 615.070312 612.398438 659.570312 C 573.644531 735.101562 553.21875 994.191406 600.410156 1037.691406 C 647.597656 1081.191406 917.199219 901.660156 917.199219 901.660156 C 916.941406 871.890625 904.976562 844.640625 884 815.429688 L 713.382812 889.210938 L 713.289062 725.050781 L 761.34375 585.328125 "/>
<path fill-rule="evenodd" fill="rgb(14.501953%, 16.088867%, 19.993591%)" fill-opacity="1" d="M 720.8125 591.390625 C 718.054688 690.46875 765.835938 735.261719 809.335938 734.019531 C 853.070312 732.78125 896.207031 685.101562 883.730469 595.078125 C 883.257812 591.660156 880.101562 589.269531 876.6875 589.75 C 873.273438 590.21875 870.886719 593.378906 871.359375 596.789062 C 882.402344 676.460938 847.683594 720.441406 808.980469 721.539062 C 794.078125 721.960938 778.894531 715.800781 766.128906 702.96875 C 745.808594 682.539062 731.792969 645.78125 733.296875 591.738281 C 733.390625 588.300781 730.671875 585.421875 727.226562 585.328125 C 723.78125 585.230469 720.90625 587.949219 720.8125 591.390625 "/>
<path fill-rule="evenodd" fill="rgb(100%, 100%, 100%)" fill-opacity="1" d="M 854.949219 989.269531 C 870.476562 989.269531 883.078125 1001.878906 883.078125 1017.398438 C 883.078125 1032.929688 870.476562 1045.53125 854.949219 1045.53125 C 839.425781 1045.53125 826.820312 1032.929688 826.820312 1017.398438 C 826.820312 1001.878906 839.425781 989.269531 854.949219 989.269531 "/>
<path fill-rule="evenodd" fill="rgb(69.726562%, 71.484375%, 71.484375%)" fill-opacity="1" d="M 854.949219 983.511719 C 836.242188 983.511719 821.058594 998.699219 821.058594 1017.398438 C 821.058594 1036.109375 836.242188 1051.289062 854.949219 1051.289062 C 873.65625 1051.289062 888.84375 1036.109375 888.84375 1017.398438 C 888.84375 998.699219 873.65625 983.511719 854.949219 983.511719 Z M 854.949219 995.039062 C 867.292969 995.039062 877.3125 1005.058594 877.3125 1017.398438 C 877.3125 1029.738281 867.292969 1039.769531 854.949219 1039.769531 C 842.605469 1039.769531 832.585938 1029.738281 832.585938 1017.398438 C 832.585938 1005.058594 842.605469 995.039062 854.949219 995.039062 "/>
<path fill-rule="evenodd" fill="rgb(44.309998%, 71.484375%, 87.889099%)" fill-opacity="1" d="M 1659.609375 874.910156 L 1558.480469 924.789062 L 1556.320312 1052.910156 C 1487.019531 1195.210938 1496.570312 1297.628906 1558.171875 1373.851562 C 1652.039062 1404.871094 1774.230469 1397.378906 1905.859375 1377.078125 L 1777.199219 850.941406 L 1659.609375 874.910156 "/>
<path fill-rule="evenodd" fill="rgb(92.1875%, 71.875%, 57.617188%)" fill-opacity="1" d="M 1841.300781 1204.160156 C 1841.300781 1204.160156 1848.941406 1232.230469 1848.679688 1246.578125 C 1847.828125 1293.160156 1836.230469 1483.601562 1836.230469 1483.601562 C 1760.199219 1505.390625 1696.859375 1550.484375 1728.320312 1573.519531 C 1728.550781 1583.105469 1735.648438 1588.046875 1747.691406 1589.65625 C 1752.308594 1599.007812 1762.238281 1600.410156 1775.359375 1597.035156 C 1775.359375 1597.035156 1776.070312 1606.03125 1786.421875 1608.566406 C 1803.140625 1612.65625 1826.851562 1586.429688 1846.828125 1577.210938 C 1866.441406 1568.15625 1894.089844 1563.527344 1905.859375 1550.464844 C 1917.609375 1537.398438 1917.839844 1501.585938 1917.839844 1501.585938 C 1917.839844 1501.585938 1958.121094 1319.289062 1965.339844 1267.789062 C 1968.601562 1244.53125 1961.191406 1192.628906 1961.191406 1192.628906 L 1841.300781 1204.160156 "/>
<path fill-rule="evenodd" fill="rgb(44.309998%, 71.484375%, 87.889099%)" fill-opacity="1" d="M 1777.199219 850.941406 C 1777.199219 850.941406 1916.941406 886.660156 1950.578125 951.921875 C 1981.441406 1011.789062 1978.710938 1201.390625 1978.710938 1201.390625 C 1938.210938 1215.429688 1883.101562 1225.050781 1824.699219 1209.230469 L 1777.199219 850.941406 "/>
<path fill-rule="evenodd" fill="rgb(44.309998%, 71.484375%, 87.889099%)" fill-opacity="1" d="M 1666.53125 858.769531 L 1513.898438 816.808594 C 1467.839844 848.039062 1434.339844 887.898438 1405.53125 934.398438 L 1556.320312 1052.910156 L 1666.53125 858.769531 "/>
<path fill-rule="evenodd" fill="rgb(17.30957%, 56.834412%, 81.639099%)" fill-opacity="1" d="M 1774.429688 865.691406 C 1774.429688 865.691406 1782.269531 906.808594 1777.660156 916.878906 C 1773.191406 926.648438 1746.769531 926.101562 1746.769531 926.101562 C 1746.769531 926.101562 1761.519531 945.710938 1754.609375 951 C 1745.460938 957.988281 1691.890625 968.058594 1691.890625 968.058594 C 1691.890625 968.058594 1661.230469 948.460938 1657.769531 939.46875 C 1654.339844 930.550781 1671.140625 914.109375 1671.140625 914.109375 C 1671.140625 914.109375 1645.171875 915.488281 1642.550781 906.269531 C 1639.941406 897.050781 1651.769531 861.761719 1655.460938 858.769531 C 1673.359375 844.328125 1774.429688 865.691406 1774.429688 865.691406 "/>
<path fill-rule="evenodd" fill="rgb(92.1875%, 71.875%, 57.617188%)" fill-opacity="1" d="M 1682.671875 877.21875 L 1691.890625 968.058594 L 1750.921875 872.148438 L 1682.671875 877.21875 "/>
<path fill-rule="evenodd" fill="rgb(92.1875%, 71.875%, 57.617188%)" fill-opacity="1" d="M 1829.820312 798.300781 C 1831.089844 850.75 1768.109375 892.238281 1709.050781 882.839844 C 1703.75 885.699219 1697.371094 887.359375 1690.511719 887.359375 C 1676.179688 887.359375 1663.949219 880.089844 1659.308594 869.929688 C 1610 856.980469 1582.480469 804.191406 1600.179688 753.390625 C 1612.308594 718.550781 1643.570312 662.660156 1643.570312 662.660156 C 1688.429688 690.21875 1742.710938 698.789062 1803.5 694.230469 C 1799.640625 706.519531 1805.339844 742.191406 1819.179688 749.519531 C 1821.949219 748.421875 1827.238281 744.898438 1830.390625 744.558594 C 1846.96875 742.808594 1861.699219 753.410156 1863.261719 768.21875 C 1864.828125 783.03125 1852.640625 796.46875 1836.058594 798.21875 C 1833.941406 798.441406 1831.851562 798.460938 1829.820312 798.300781 "/>
<path fill-rule="evenodd" fill="rgb(76.5625%, 47.801208%, 28.588867%)" fill-opacity="1" d="M 732.078125 467.550781 C 739.6875 471.011719 742.308594 478.738281 738.554688 483.269531 C 737.199219 484.910156 737.429688 487.328125 739.0625 488.679688 C 740.695312 490.039062 743.121094 489.808594 744.472656 488.179688 C 750.90625 480.410156 748.289062 466.488281 735.265625 460.558594 C 733.335938 459.679688 731.058594 460.53125 730.175781 462.460938 C 729.296875 464.390625 730.148438 466.671875 732.078125 467.550781 "/>
<path fill-rule="evenodd" fill="rgb(76.5625%, 47.801208%, 28.588867%)" fill-opacity="1" d="M 842.351562 462.839844 C 842.765625 472.199219 848.664062 479.109375 854.671875 485.011719 C 857.234375 487.519531 859.78125 489.839844 861.664062 492.160156 C 862.996094 493.808594 864.046875 495.371094 864.019531 497.140625 C 863.984375 499.25 861.933594 499.941406 859.933594 500.511719 C 854.996094 501.898438 848.863281 501.28125 848.863281 501.28125 C 846.753906 501.078125 844.875 502.621094 844.667969 504.730469 C 844.464844 506.851562 846.011719 508.730469 848.121094 508.929688 C 848.121094 508.929688 855.820312 509.660156 862.023438 507.898438 C 867.457031 506.371094 871.613281 502.988281 871.703125 497.261719 C 871.785156 492.191406 868.160156 487.449219 863.210938 482.589844 C 860.285156 479.71875 856.941406 476.699219 854.300781 473.191406 C 851.988281 470.121094 850.214844 466.671875 850.027344 462.5 C 849.933594 460.378906 848.136719 458.730469 846.015625 458.828125 C 843.898438 458.921875 842.253906 460.71875 842.351562 462.839844 "/>
<path fill-rule="evenodd" fill="rgb(39.208984%, 25.097656%, 12.205505%)" fill-opacity="1" d="M 795.03125 450.078125 C 798.316406 437.828125 813.644531 433.269531 819.339844 444.148438 C 820.570312 446.488281 823.472656 447.398438 825.820312 446.171875 C 828.171875 444.941406 829.078125 442.039062 827.847656 439.691406 C 818.097656 421.078125 791.371094 426.628906 785.753906 447.589844 C 785.066406 450.148438 786.589844 452.789062 789.148438 453.46875 C 791.710938 454.160156 794.34375 452.640625 795.03125 450.078125 "/>
<path fill-rule="evenodd" fill="rgb(39.208984%, 25.097656%, 12.205505%)" fill-opacity="1" d="M 858.683594 442.859375 C 862.898438 433.320312 875.921875 431.398438 879.179688 440.960938 C 880.03125 443.46875 882.765625 444.808594 885.273438 443.960938 C 887.785156 443.101562 889.128906 440.371094 888.269531 437.859375 C 882.195312 420.03125 857.757812 421.191406 849.898438 438.988281 C 848.828125 441.410156 849.925781 444.25 852.351562 445.320312 C 854.777344 446.390625 857.613281 445.289062 858.683594 442.859375 "/>
<path fill-rule="evenodd" fill="rgb(14.501953%, 16.088867%, 19.993591%)" fill-opacity="1" d="M 815.753906 452.519531 C 819.828125 452.519531 823.132812 457.691406 823.132812 464.050781 C 823.132812 470.410156 819.828125 475.578125 815.753906 475.578125 C 811.683594 475.578125 808.378906 470.410156 808.378906 464.050781 C 808.378906 457.691406 811.683594 452.519531 815.753906 452.519531 "/>
<path fill-rule="evenodd" fill="rgb(14.501953%, 16.088867%, 19.993591%)" fill-opacity="1" d="M 877.03125 452.789062 C 881.101562 452.789062 884.40625 457.949219 884.40625 464.308594 C 884.40625 470.679688 881.101562 475.839844 877.03125 475.839844 C 872.957031 475.839844 869.652344 470.679688 869.652344 464.308594 C 869.652344 457.949219 872.957031 452.789062 877.03125 452.789062 "/>
<path fill-rule="evenodd" fill="rgb(100%, 100%, 100%)" fill-opacity="1" d="M 812.148438 520.761719 C 810.949219 520.738281 809.800781 521.238281 809.015625 522.148438 C 808.230469 523.050781 807.890625 524.261719 808.085938 525.441406 C 810.054688 537.21875 820.15625 546.308594 832.53125 546.589844 C 844.902344 546.871094 855.40625 538.238281 857.902344 526.558594 C 858.148438 525.390625 857.863281 524.171875 857.117188 523.230469 C 856.375 522.289062 855.253906 521.730469 854.054688 521.710938 C 846.796875 521.539062 833.101562 521.230469 833.101562 521.230469 C 833.101562 521.230469 819.40625 520.929688 812.148438 520.761719 "/>
<path fill-rule="evenodd" fill="rgb(76.5625%, 47.801208%, 28.588867%)" fill-opacity="1" d="M 821.375 577.800781 C 803.128906 577.378906 784.738281 567.660156 772.945312 547.851562 C 771.855469 546.03125 769.496094 545.429688 767.675781 546.519531 C 765.855469 547.609375 765.253906 549.960938 766.339844 551.789062 C 779.679688 574.171875 800.570312 585.011719 821.199219 585.480469 C 823.320312 585.53125 825.078125 583.851562 825.128906 581.730469 C 825.179688 579.609375 823.496094 577.839844 821.375 577.800781 "/>
<path fill-rule="evenodd" fill="rgb(69.726562%, 71.484375%, 71.484375%)" fill-opacity="1" d="M 709.078125 764.679688 L 708.160156 892.871094 C 708.148438 894.171875 708.800781 895.398438 709.894531 896.109375 C 710.984375 896.828125 712.363281 896.941406 713.558594 896.410156 L 881.527344 821.960938 C 899.046875 843.25 909.929688 866.511719 913.128906 892.070312 C 840.65625 946.101562 746.496094 1001.78125 679.605469 1028.730469 C 651.363281 1040.109375 628.140625 1046.421875 613.714844 1044.941406 C 611.605469 1044.71875 609.714844 1046.261719 609.496094 1048.359375 C 609.28125 1050.46875 610.816406 1052.359375 612.925781 1052.578125 C 628.136719 1054.148438 652.703125 1047.851562 682.476562 1035.859375 C 750.40625 1008.488281 846.269531 951.738281 919.503906 896.898438 C 920.589844 896.078125 921.167969 894.761719 921.019531 893.410156 C 917.921875 864.601562 905.703125 838.511719 885.546875 814.78125 C 884.441406 813.488281 882.617188 813.070312 881.058594 813.761719 L 715.886719 886.96875 C 716.070312 861.71875 716.765625 764.730469 716.765625 764.730469 C 716.78125 762.609375 715.070312 760.878906 712.949219 760.859375 C 710.828125 760.851562 709.09375 762.558594 709.078125 764.679688 "/>
<path fill-rule="evenodd" fill="rgb(69.726562%, 71.484375%, 71.484375%)" fill-opacity="1" d="M 863.128906 936.921875 C 901.738281 968.351562 954.160156 993.070312 1021.371094 1010.511719 C 1023.429688 1011.050781 1025.53125 1009.808594 1026.058594 1007.761719 C 1026.589844 1005.710938 1025.359375 1003.609375 1023.300781 1003.078125 C 957.351562 985.960938 905.863281 961.800781 867.980469 930.960938 C 866.335938 929.621094 863.914062 929.871094 862.574219 931.511719 C 861.238281 933.160156 861.484375 935.578125 863.128906 936.921875 "/>
<path fill-rule="evenodd" fill="rgb(69.726562%, 71.484375%, 71.484375%)" fill-opacity="1" d="M 983.195312 813.640625 L 979.496094 797.640625 C 979.019531 795.570312 976.953125 794.28125 974.886719 794.761719 C 972.820312 795.238281 971.53125 797.300781 972.011719 799.371094 L 975.710938 815.371094 C 976.1875 817.441406 978.253906 818.730469 980.316406 818.25 C 982.386719 817.769531 983.675781 815.710938 983.195312 813.640625 "/>
<path fill-rule="evenodd" fill="rgb(69.726562%, 71.484375%, 71.484375%)" fill-opacity="1" d="M 971.804688 764.351562 L 961.984375 721.878906 C 961.507812 719.808594 959.445312 718.519531 957.378906 719 C 955.308594 719.480469 954.019531 721.539062 954.496094 723.609375 L 964.316406 766.078125 C 964.792969 768.140625 966.859375 769.429688 968.921875 768.960938 C 970.988281 768.480469 972.28125 766.410156 971.804688 764.351562 "/>
<path fill-rule="evenodd" fill="rgb(69.726562%, 71.484375%, 71.484375%)" fill-opacity="1" d="M 741.445312 1107.921875 C 741.410156 1105.789062 739.664062 1104.101562 737.542969 1104.140625 L 628.695312 1105.890625 C 626.574219 1105.921875 624.882812 1107.671875 624.917969 1109.789062 C 624.917969 1109.789062 625.714844 1159.191406 626.300781 1195.75 C 626.484375 1206.988281 631.121094 1217.691406 639.195312 1225.511719 C 647.269531 1233.328125 658.121094 1237.621094 669.355469 1237.441406 C 679.675781 1237.269531 690.824219 1237.089844 701.140625 1236.929688 C 712.378906 1236.75 723.085938 1232.109375 730.902344 1224.039062 C 738.722656 1215.960938 743.011719 1205.109375 742.832031 1193.871094 C 742.242188 1157.308594 741.445312 1107.921875 741.445312 1107.921875 Z M 733.824219 1111.878906 L 735.148438 1194 C 735.296875 1203.199219 731.785156 1212.078125 725.382812 1218.691406 C 718.980469 1225.300781 710.21875 1229.089844 701.019531 1229.238281 C 690.703125 1229.410156 679.550781 1229.589844 669.234375 1229.761719 C 660.035156 1229.898438 651.152344 1226.390625 644.542969 1219.988281 C 637.933594 1213.589844 634.136719 1204.828125 633.988281 1195.628906 L 632.664062 1113.511719 L 733.824219 1111.878906 "/>
<path fill-rule="evenodd" fill="rgb(69.726562%, 71.484375%, 71.484375%)" fill-opacity="1" d="M 1026.480469 1094.578125 C 1026.300781 1092.460938 1024.441406 1090.898438 1022.320312 1091.078125 L 940.519531 1098.171875 C 938.402344 1098.351562 936.839844 1100.210938 937.023438 1102.328125 C 937.023438 1102.328125 941.941406 1159.109375 944.902344 1193.289062 C 946.292969 1209.339844 960.433594 1221.230469 976.488281 1219.839844 C 986.445312 1218.96875 997.855469 1217.988281 1007.808594 1217.121094 C 1023.871094 1215.730469 1035.75 1201.589844 1034.359375 1185.539062 C 1031.398438 1151.359375 1026.480469 1094.578125 1026.480469 1094.578125 Z M 1019.160156 1099.070312 L 1026.710938 1186.199219 C 1027.730469 1198.03125 1018.96875 1208.441406 1007.148438 1209.46875 C 997.191406 1210.328125 985.78125 1211.320312 975.824219 1212.179688 C 963.996094 1213.210938 953.582031 1204.449219 952.558594 1192.621094 L 945.011719 1105.488281 L 1019.160156 1099.070312 "/>
<path fill-rule="evenodd" fill="rgb(76.5625%, 47.801208%, 28.588867%)" fill-opacity="1" d="M 1600.828125 755.761719 C 1610.890625 734.75 1619.308594 717.410156 1625.941406 695.738281 C 1626.558594 693.710938 1625.410156 691.558594 1623.390625 690.941406 C 1621.359375 690.320312 1619.210938 691.460938 1618.589844 693.488281 C 1612.078125 714.78125 1603.78125 731.800781 1593.890625 752.441406 C 1592.980469 754.351562 1593.789062 756.648438 1595.699219 757.558594 C 1597.621094 758.480469 1599.910156 757.671875 1600.828125 755.761719 "/>
<path fill-rule="evenodd" fill="rgb(76.5625%, 47.801208%, 28.588867%)" fill-opacity="1" d="M 1837.320312 756.910156 C 1821.738281 762.070312 1817.628906 783.289062 1833.621094 788.640625 C 1835.640625 789.308594 1837.808594 788.21875 1838.488281 786.210938 C 1839.160156 784.199219 1838.070312 782.019531 1836.058594 781.351562 C 1827.28125 778.410156 1831.179688 767.039062 1839.738281 764.199219 C 1841.75 763.539062 1842.839844 761.359375 1842.179688 759.351562 C 1841.511719 757.328125 1839.339844 756.238281 1837.320312 756.910156 "/>
<path fill-rule="evenodd" fill="rgb(76.5625%, 47.801208%, 28.588867%)" fill-opacity="1" d="M 1720.328125 796.25 C 1735.308594 808.699219 1751.5 816.019531 1768.558594 819.648438 C 1770.640625 820.089844 1772.679688 818.761719 1773.121094 816.691406 C 1773.558594 814.621094 1772.230469 812.570312 1770.160156 812.128906 C 1754.269531 808.75 1739.191406 801.929688 1725.238281 790.339844 C 1723.609375 788.980469 1721.191406 789.210938 1719.828125 790.839844 C 1718.480469 792.46875 1718.699219 794.890625 1720.328125 796.25 "/>
<path fill-rule="evenodd" fill="rgb(76.5625%, 47.801208%, 28.588867%)" fill-opacity="1" d="M 1667.460938 782.078125 C 1656.808594 787.890625 1645.308594 790.941406 1632.160156 788.589844 C 1630.070312 788.21875 1628.078125 789.609375 1627.699219 791.699219 C 1627.328125 793.78125 1628.71875 795.78125 1630.808594 796.160156 C 1645.828125 798.839844 1658.988281 795.46875 1671.140625 788.828125 C 1673 787.808594 1673.691406 785.46875 1672.671875 783.609375 C 1671.648438 781.75 1669.320312 781.070312 1667.460938 782.078125 "/>
<path fill-rule="evenodd" fill="rgb(0%, 0%, 0%)" fill-opacity="1" d="M 1743.640625 737.460938 C 1748.671875 738.859375 1751.359375 744.980469 1749.640625 751.109375 C 1747.941406 757.238281 1742.46875 761.070312 1737.441406 759.671875 C 1732.421875 758.269531 1729.730469 752.148438 1731.441406 746.019531 C 1733.148438 739.890625 1738.621094 736.058594 1743.640625 737.460938 "/>
<path fill-rule="evenodd" fill="rgb(0%, 0%, 0%)" fill-opacity="1" d="M 1667.308594 720.421875 C 1672.339844 721.820312 1675.03125 727.941406 1673.320312 734.058594 C 1671.609375 740.191406 1666.140625 744.03125 1661.121094 742.621094 C 1656.089844 741.21875 1653.398438 735.109375 1655.109375 728.980469 C 1656.820312 722.851562 1662.289062 719.011719 1667.308594 720.421875 "/>
<path fill-rule="evenodd" fill="rgb(100%, 100%, 100%)" fill-opacity="1" d="M 1680.460938 812.191406 C 1701.789062 809.03125 1729.039062 816.398438 1728.011719 834.371094 C 1726.628906 858.320312 1686.390625 846.460938 1680.460938 812.191406 "/>
<path fill-rule="evenodd" fill="rgb(50.584412%, 53.318787%, 53.318787%)" fill-opacity="1" d="M 1733.289062 722.050781 C 1745.839844 734.148438 1763.121094 740.578125 1783.511719 743.191406 C 1786.140625 743.519531 1788.550781 741.660156 1788.878906 739.03125 C 1789.21875 736.398438 1787.351562 733.988281 1784.71875 733.660156 C 1766.601562 731.339844 1751.121094 725.890625 1739.960938 715.128906 C 1738.050781 713.300781 1735 713.351562 1733.160156 715.261719 C 1731.320312 717.171875 1731.378906 720.210938 1733.289062 722.050781 "/>
<path fill-rule="evenodd" fill="rgb(76.5625%, 47.801208%, 28.588867%)" fill-opacity="1" d="M 1694.019531 747.359375 C 1694.019531 747.359375 1682.53125 752.53125 1676.058594 759.140625 C 1672.550781 762.71875 1670.539062 766.800781 1671.019531 770.699219 C 1671.730469 776.578125 1675.308594 781.019531 1679.480469 784.140625 C 1685.179688 788.390625 1691.859375 790.101562 1691.859375 790.101562 C 1693.921875 790.628906 1696.011719 789.378906 1696.539062 787.328125 C 1697.058594 785.28125 1695.820312 783.179688 1693.769531 782.660156 L 1684.078125 777.980469 C 1681.488281 776.050781 1679.089844 773.421875 1678.640625 769.78125 C 1678.519531 768.71875 1679.039062 767.710938 1679.730469 766.699219 C 1680.789062 765.128906 1682.339844 763.648438 1684.050781 762.269531 C 1689.738281 757.679688 1697.148438 754.378906 1697.148438 754.378906 C 1699.089844 753.511719 1699.960938 751.238281 1699.089844 749.308594 C 1698.230469 747.371094 1695.949219 746.5 1694.019531 747.359375 "/>
<path fill-rule="evenodd" fill="rgb(50.584412%, 53.318787%, 53.318787%)" fill-opacity="1" d="M 1695.5 707.441406 C 1680.109375 710.730469 1666.789062 707.351562 1654.800781 699.769531 C 1652.558594 698.359375 1649.589844 699.03125 1648.171875 701.269531 C 1646.761719 703.511719 1647.429688 706.480469 1649.671875 707.898438 C 1663.769531 716.789062 1679.421875 720.699219 1697.511719 716.828125 C 1700.101562 716.28125 1701.761719 713.730469 1701.199219 711.128906 C 1700.648438 708.539062 1698.089844 706.878906 1695.5 707.441406 "/>
<path fill-rule="evenodd" fill="rgb(76.5625%, 47.801208%, 28.588867%)" fill-opacity="1" d="M 1778.21875 760.628906 C 1781.21875 760.429688 1784.320312 760.320312 1786.558594 760.238281 C 1788.679688 760.171875 1790.339844 758.390625 1790.261719 756.269531 C 1790.191406 754.148438 1788.410156 752.488281 1786.289062 752.558594 C 1781.328125 752.738281 1772.410156 753.109375 1768.621094 754.128906 C 1766.148438 754.800781 1764.898438 756.191406 1764.480469 757.121094 C 1763.839844 758.53125 1763.78125 760.808594 1766.121094 762.859375 C 1768.558594 765.011719 1776.101562 768.308594 1780.320312 770.089844 C 1782.28125 770.910156 1784.53125 769.988281 1785.351562 768.039062 C 1786.179688 766.089844 1785.261719 763.828125 1783.300781 763.011719 C 1782.03125 762.46875 1780.140625 761.570312 1778.21875 760.628906 "/>
<path fill-rule="evenodd" fill="rgb(76.5625%, 47.801208%, 28.588867%)" fill-opacity="1" d="M 1635.808594 718.75 C 1634.199219 718.269531 1632.570312 717.691406 1631.378906 717.269531 C 1629.378906 716.570312 1627.191406 717.621094 1626.480469 719.621094 C 1625.769531 721.621094 1626.820312 723.808594 1628.820312 724.519531 C 1632 725.640625 1637.769531 727.460938 1640.441406 727.160156 C 1642.648438 726.921875 1643.980469 725.769531 1644.640625 724.398438 C 1645.089844 723.460938 1645.320312 721.949219 1644.789062 720.058594 C 1643.910156 716.960938 1640.398438 711.328125 1638.410156 708.21875 C 1637.269531 706.441406 1634.890625 705.910156 1633.101562 707.058594 C 1631.308594 708.199219 1630.789062 710.578125 1631.941406 712.359375 C 1632.988281 714.019531 1634.570312 716.460938 1635.808594 718.75 "/>
<path fill-rule="evenodd" fill="rgb(76.5625%, 47.801208%, 28.588867%)" fill-opacity="1" d="M 1687.089844 891.039062 C 1694.871094 893.390625 1725.019531 893.078125 1737.859375 888.699219 C 1739.871094 888.011719 1740.941406 885.820312 1740.261719 883.820312 C 1739.570312 881.808594 1737.390625 880.738281 1735.378906 881.421875 C 1723.71875 885.398438 1696.371094 885.820312 1689.308594 883.691406 C 1687.289062 883.070312 1685.140625 884.21875 1684.53125 886.25 C 1683.910156 888.28125 1685.058594 890.429688 1687.089844 891.039062 "/>
<path fill-rule="evenodd" fill="rgb(76.5625%, 47.801208%, 28.588867%)" fill-opacity="1" d="M 1482.171875 819.011719 C 1474.789062 817.929688 1467.421875 816.851562 1460.039062 815.78125 C 1457.941406 815.46875 1455.988281 816.929688 1455.679688 819.019531 C 1455.378906 821.121094 1456.828125 823.070312 1458.929688 823.378906 C 1466.308594 824.460938 1473.691406 825.53125 1481.058594 826.609375 C 1483.160156 826.910156 1485.121094 825.460938 1485.421875 823.359375 C 1485.730469 821.261719 1484.269531 819.308594 1482.171875 819.011719 "/>
<path fill-rule="evenodd" fill="rgb(17.30957%, 56.834412%, 81.639099%)" fill-opacity="1" d="M 1561.988281 1044.570312 C 1564.070312 1025.789062 1574.988281 1007.039062 1580.398438 997.648438 C 1581.460938 995.808594 1580.828125 993.460938 1578.988281 992.398438 C 1577.160156 991.339844 1574.800781 991.96875 1573.738281 993.808594 C 1567.988281 1003.789062 1556.558594 1023.769531 1554.351562 1043.71875 C 1554.109375 1045.828125 1555.628906 1047.730469 1557.738281 1047.96875 C 1559.851562 1048.199219 1561.75 1046.679688 1561.988281 1044.570312 "/>
<path fill-rule="evenodd" fill="rgb(17.30957%, 56.834412%, 81.639099%)" fill-opacity="1" d="M 1838.238281 1209.128906 C 1835.238281 1208.628906 1830.429688 1207.890625 1826.96875 1206.058594 C 1825.691406 1205.390625 1824.480469 1204.699219 1824.378906 1203.398438 C 1822.460938 1178.671875 1827.441406 1102.371094 1829.921875 1064.21875 C 1830.050781 1062.109375 1828.441406 1060.28125 1826.328125 1060.140625 C 1824.210938 1060 1822.378906 1061.609375 1822.238281 1063.730469 C 1819.75 1102.171875 1814.789062 1179.070312 1816.71875 1203.988281 C 1817.019531 1207.859375 1819.558594 1210.839844 1823.390625 1212.859375 C 1827.558594 1215.058594 1833.351562 1216.101562 1836.96875 1216.710938 C 1839.058594 1217.058594 1841.050781 1215.648438 1841.398438 1213.558594 C 1841.75 1211.460938 1840.339844 1209.480469 1838.238281 1209.128906 "/>
<path fill-rule="evenodd" fill="rgb(17.30957%, 56.834412%, 81.639099%)" fill-opacity="1" d="M 1685.898438 970.210938 C 1631.871094 1155.441406 1637.628906 1334.070312 1658.308594 1390.839844 C 1659.039062 1392.839844 1661.238281 1393.871094 1663.230469 1393.140625 C 1665.230469 1392.410156 1666.261719 1390.210938 1665.53125 1388.210938 C 1645.089844 1332.089844 1639.859375 1155.5 1693.28125 972.359375 C 1693.871094 970.328125 1692.699219 968.191406 1690.660156 967.601562 C 1688.628906 967.011719 1686.488281 968.179688 1685.898438 970.210938 "/>
<path fill-rule="evenodd" fill="rgb(100%, 100%, 100%)" fill-opacity="1" d="M 1698.808594 1017.859375 C 1705.429688 1017.859375 1710.800781 1023.230469 1710.800781 1029.851562 C 1710.800781 1036.46875 1705.429688 1041.839844 1698.808594 1041.839844 C 1692.191406 1041.839844 1686.820312 1036.46875 1686.820312 1029.851562 C 1686.820312 1023.230469 1692.191406 1017.859375 1698.808594 1017.859375 "/>
<path fill-rule="evenodd" fill="rgb(100%, 100%, 100%)" fill-opacity="1" d="M 1683.890625 1091.851562 C 1690.511719 1091.851562 1695.878906 1097.21875 1695.878906 1103.839844 C 1695.878906 1110.460938 1690.511719 1115.828125 1683.890625 1115.828125 C 1677.269531 1115.828125 1671.898438 1110.460938 1671.898438 1103.839844 C 1671.898438 1097.21875 1677.269531 1091.851562 1683.890625 1091.851562 "/>
<path fill-rule="evenodd" fill="rgb(100%, 100%, 100%)" fill-opacity="1" d="M 1674.011719 1164.28125 C 1680.628906 1164.28125 1686 1169.648438 1686 1176.269531 C 1686 1182.890625 1680.628906 1188.261719 1674.011719 1188.261719 C 1667.398438 1188.261719 1662.03125 1182.890625 1662.03125 1176.269531 C 1662.03125 1169.648438 1667.398438 1164.28125 1674.011719 1164.28125 "/>
<path fill-rule="evenodd" fill="rgb(100%, 100%, 100%)" fill-opacity="1" d="M 1670.210938 1237.128906 C 1676.828125 1237.128906 1682.199219 1242.5 1682.199219 1249.121094 C 1682.199219 1255.738281 1676.828125 1261.109375 1670.210938 1261.109375 C 1663.589844 1261.109375 1658.21875 1255.738281 1658.21875 1249.121094 C 1658.21875 1242.5 1663.589844 1237.128906 1670.210938 1237.128906 "/>
<path fill-rule="evenodd" fill="rgb(100%, 100%, 100%)" fill-opacity="1" d="M 1671.589844 1310.628906 C 1678.210938 1310.628906 1683.589844 1316.011719 1683.589844 1322.621094 C 1683.589844 1329.238281 1678.210938 1334.609375 1671.589844 1334.609375 C 1664.980469 1334.609375 1659.609375 1329.238281 1659.609375 1322.621094 C 1659.609375 1316.011719 1664.980469 1310.628906 1671.589844 1310.628906 "/>
<path fill-rule="evenodd" fill="rgb(19.189453%, 12.5%, 7.788086%)" fill-opacity="1" d="M 1396.5 1674.382812 C 1396.121094 1659.519531 1395.480469 1635.734375 1400.058594 1613.816406 C 1402.980469 1599.847656 1407.988281 1586.617188 1416.851562 1577.292969 C 1453.53125 1538.703125 1561.488281 1476.800781 1615.429688 1445.800781 C 1617.730469 1444.480469 1618.53125 1441.539062 1617.210938 1439.238281 C 1615.878906 1436.941406 1612.941406 1436.148438 1610.648438 1437.46875 C 1556.078125 1468.828125 1446.988281 1531.636719 1409.890625 1570.671875 C 1399.871094 1581.21875 1393.960938 1596.058594 1390.648438 1611.851562 C 1385.898438 1634.570312 1386.5 1659.222656 1386.898438 1674.628906 C 1386.960938 1677.28125 1389.171875 1679.375 1391.820312 1679.308594 C 1394.46875 1679.238281 1396.570312 1677.03125 1396.5 1674.382812 "/>
<path fill-rule="evenodd" fill="rgb(76.5625%, 47.801208%, 28.588867%)" fill-opacity="1" d="M 1733.621094 1569.210938 C 1735.058594 1566.253906 1737.878906 1560.273438 1742.289062 1556.660156 C 1757.460938 1544.21875 1783.179688 1530.992188 1796.019531 1524.367188 C 1797.910156 1523.394531 1798.648438 1521.074219 1797.679688 1519.191406 C 1796.699219 1517.304688 1794.390625 1516.5625 1792.5 1517.535156 C 1779.320312 1524.332031 1752.980469 1537.953125 1737.410156 1550.71875 C 1732.058594 1555.109375 1728.46875 1562.242188 1726.710938 1565.839844 C 1725.78125 1567.742188 1726.570312 1570.046875 1728.480469 1570.976562 C 1730.378906 1571.910156 1732.691406 1571.117188 1733.621094 1569.210938 "/>
<path fill-rule="evenodd" fill="rgb(76.5625%, 47.801208%, 28.588867%)" fill-opacity="1" d="M 1778.851562 1592.480469 C 1781.730469 1588.765625 1787.46875 1581.320312 1792.949219 1576.996094 C 1803.039062 1569.050781 1826.890625 1553.265625 1838.808594 1545.367188 C 1840.578125 1544.195312 1841.058594 1541.808594 1839.890625 1540.039062 C 1838.71875 1538.273438 1836.328125 1537.789062 1834.558594 1538.960938 C 1822.511719 1546.945312 1798.398438 1562.925781 1788.191406 1570.960938 C 1782.21875 1575.664062 1775.921875 1583.722656 1772.78125 1587.765625 C 1771.480469 1589.441406 1771.789062 1591.855469 1773.460938 1593.15625 C 1775.140625 1594.453125 1777.550781 1594.152344 1778.851562 1592.480469 "/>
<path fill-rule="evenodd" fill="rgb(76.5625%, 47.801208%, 28.588867%)" fill-opacity="1" d="M 1751.148438 1584.414062 C 1753.328125 1579.902344 1757.558594 1570.789062 1763.359375 1566.453125 C 1774.558594 1558.078125 1803.039062 1542.972656 1817.28125 1535.410156 C 1819.148438 1534.417969 1819.859375 1532.089844 1818.871094 1530.214844 C 1817.871094 1528.34375 1815.539062 1527.628906 1813.671875 1528.625 C 1799.160156 1536.328125 1770.160156 1551.765625 1758.761719 1560.300781 C 1751.988281 1565.359375 1746.78125 1575.804688 1744.230469 1581.066406 C 1743.308594 1582.976562 1744.109375 1585.277344 1746.019531 1586.203125 C 1747.929688 1587.128906 1750.230469 1586.324219 1751.148438 1584.414062 "/>
<path fill-rule="evenodd" fill="rgb(41.209412%, 43.896484%, 43.896484%)" fill-opacity="1" d="M 1811.398438 684.328125 C 1815.550781 664.359375 1824.730469 647 1838.988281 632.269531 C 1840.460938 630.738281 1840.421875 628.308594 1838.898438 626.828125 C 1837.371094 625.359375 1834.941406 625.398438 1833.460938 626.921875 C 1818.179688 642.71875 1808.320312 661.339844 1803.871094 682.761719 C 1803.441406 684.839844 1804.78125 686.878906 1806.851562 687.308594 C 1808.929688 687.738281 1810.96875 686.410156 1811.398438 684.328125 "/>
<path fill-rule="evenodd" fill="rgb(76.171875%, 77.539062%, 77.539062%)" fill-opacity="1" d="M 1818.800781 617.941406 C 1803.230469 599.191406 1777.121094 576.179688 1751.199219 575.160156 C 1748.550781 575.050781 1746.320312 577.121094 1746.210938 579.769531 C 1746.109375 582.410156 1748.171875 584.648438 1750.820312 584.761719 C 1774.230469 585.679688 1797.351562 607.148438 1811.410156 624.078125 C 1813.109375 626.121094 1816.140625 626.398438 1818.179688 624.699219 C 1820.21875 623.011719 1820.5 619.980469 1818.800781 617.941406 "/>
<path fill-rule="evenodd" fill="rgb(76.171875%, 77.539062%, 77.539062%)" fill-opacity="1" d="M 1800.019531 636.71875 C 1769.300781 611.03125 1735.988281 603.671875 1697.539062 600.011719 C 1694.890625 599.761719 1692.550781 601.699219 1692.300781 604.339844 C 1692.050781 606.980469 1693.988281 609.320312 1696.628906 609.570312 C 1733.070312 613.039062 1764.738281 619.738281 1793.859375 644.089844 C 1795.890625 645.789062 1798.921875 645.519531 1800.621094 643.480469 C 1802.320312 641.449219 1802.050781 638.421875 1800.019531 636.71875 "/>
<path fill-rule="evenodd" fill="rgb(76.171875%, 77.539062%, 77.539062%)" fill-opacity="1" d="M 1780.941406 658.460938 C 1762.25 658.460938 1734.488281 657.808594 1710.488281 651.96875 C 1695.261719 648.261719 1681.53125 642.550781 1673.101562 633.230469 C 1671.328125 631.261719 1668.289062 631.101562 1666.320312 632.878906 C 1664.351562 634.660156 1664.199219 637.699219 1665.980469 639.671875 C 1675.539062 650.25 1690.941406 657.101562 1708.21875 661.300781 C 1732.988281 667.328125 1761.648438 668.058594 1780.941406 668.058594 C 1783.589844 668.058594 1785.738281 665.910156 1785.738281 663.261719 C 1785.738281 660.609375 1783.589844 658.460938 1780.941406 658.460938 "/>
<path fill-rule="evenodd" fill="rgb(76.171875%, 77.539062%, 77.539062%)" fill-opacity="1" d="M 1849.488281 655.96875 C 1860.589844 672.539062 1869.269531 690.648438 1857.210938 709.421875 C 1855.78125 711.648438 1856.429688 714.621094 1858.660156 716.050781 C 1860.890625 717.488281 1863.859375 716.839844 1865.300781 714.609375 C 1879.691406 692.199219 1870.71875 670.398438 1857.46875 650.628906 C 1855.988281 648.421875 1853 647.828125 1850.800781 649.308594 C 1848.601562 650.789062 1848.011719 653.769531 1849.488281 655.96875 "/>
<path fill-rule="evenodd" fill="rgb(76.171875%, 77.539062%, 77.539062%)" fill-opacity="1" d="M 1824.421875 680.210938 C 1830.839844 690.28125 1830.921875 699.851562 1830.511719 711.441406 C 1830.421875 714.089844 1832.488281 716.308594 1835.140625 716.410156 C 1837.800781 716.5 1840.019531 714.421875 1840.109375 711.769531 C 1840.589844 698.109375 1840.089844 686.910156 1832.519531 675.039062 C 1831.089844 672.808594 1828.121094 672.148438 1825.878906 673.578125 C 1823.648438 675 1822.988281 677.96875 1824.421875 680.210938 "/>
<path fill-rule="evenodd" fill="rgb(100%, 100%, 100%)" fill-opacity="1" d="M 1369.808594 2001.640625 C 1348.980469 2011.210938 1326.53125 2020.578125 1309.628906 2033.066406 C 1297.828125 2041.78125 1288.699219 2052.035156 1284.308594 2064.746094 C 1283.621094 2066.753906 1284.691406 2068.941406 1286.691406 2069.632812 C 1288.699219 2070.324219 1290.890625 2069.257812 1291.578125 2067.253906 C 1296.480469 2053.046875 1308.238281 2042.488281 1322.71875 2033.492188 C 1337.878906 2024.078125 1356.011719 2016.441406 1373.019531 2008.625 C 1374.941406 2007.738281 1375.789062 2005.453125 1374.898438 2003.527344 C 1374.019531 2001.601562 1371.730469 2000.753906 1369.808594 2001.640625 "/>
</svg>
